<svg width="73" height="69" viewBox="0 0 73 69" fill="none" xmlns="http://www.w3.org/2000/svg">
<g id="Star . Image" clip-path="url(#clip0)">
<rect width="73" height="69" fill="white"/>
<path id="Star 13" d="M33.9758 3.92988C35.1566 2.09159 37.8434 2.09159 39.0242 3.92987L48.3117 18.3896C48.718 19.0221 49.3469 19.4791 50.074 19.67L66.696 24.0346C68.8092 24.5895 69.6395 27.1449 68.256 28.8359L57.374 42.1372C56.898 42.719 56.6578 43.4584 56.7009 44.2088L57.6863 61.3661C57.8116 63.5473 55.6379 65.1266 53.6021 64.3335L37.5891 58.0944C36.8887 57.8214 36.1113 57.8214 35.4109 58.0944L19.3979 64.3335C17.3621 65.1266 15.1884 63.5473 15.3137 61.3661L16.2991 44.2088C16.3422 43.4584 16.102 42.719 15.626 42.1372L4.74395 28.8359C3.36051 27.1449 4.1908 24.5895 6.30398 24.0346L22.926 19.67C23.6531 19.4791 24.282 19.0221 24.6883 18.3896L33.9758 3.92988Z" fill="#FFE600"/>
</g>
<defs>
<clipPath id="clip0">
<rect width="73" height="69" fill="white"/>
</clipPath>
</defs>
</svg>
